<?xml version="1.0" encoding="UTF-8" standalone="no"?>
<!-- Created with Inkscape (http://www.inkscape.org/) -->

<svg
   xmlns:dc="http://purl.org/dc/elements/1.1/"
   xmlns:cc="http://creativecommons.org/ns#"
   xmlns:rdf="http://www.w3.org/1999/02/22-rdf-syntax-ns#"
   xmlns:svg="http://www.w3.org/2000/svg"
   xmlns="http://www.w3.org/2000/svg"
   xmlns:sodipodi="http://sodipodi.sourceforge.net/DTD/sodipodi-0.dtd"
   xmlns:inkscape="http://www.inkscape.org/namespaces/inkscape"
   width="59.530849mm"
   height="79.373779mm"
   viewBox="0 0 59.530849 79.373779"
   version="1.1"
   id="svg8"
   inkscape:version="0.92.4 (5da689c313, 2019-01-14)"
   sodipodi:docname="logo.svg">
  <defs
     id="defs2" />
  <sodipodi:namedview
     id="base"
     pagecolor="#ffffff"
     bordercolor="#666666"
     borderopacity="1.0"
     inkscape:pageopacity="0.0"
     inkscape:pageshadow="2"
     inkscape:zoom="3.959798"
     inkscape:cx="92.999876"
     inkscape:cy="149.99173"
     inkscape:document-units="mm"
     inkscape:current-layer="layer1"
     showgrid="false"
     fit-margin-top="0"
     fit-margin-left="0"
     fit-margin-right="0"
     fit-margin-bottom="0"
     inkscape:window-width="3840"
     inkscape:window-height="2035"
     inkscape:window-x="3827"
     inkscape:window-y="809"
     inkscape:window-maximized="1" />
  <metadata
     id="metadata5">
    <rdf:RDF>
      <cc:Work
         rdf:about="">
        <dc:format>image/svg+xml</dc:format>
        <dc:type
           rdf:resource="http://purl.org/dc/dcmitype/StillImage" />
        <dc:title></dc:title>
      </cc:Work>
    </rdf:RDF>
  </metadata>
  <g
     inkscape:label="Layer 1"
     inkscape:groupmode="layer"
     id="layer1"
     transform="translate(-68.640476,-144.86579)">
    <path
       inkscape:connector-curvature="0"
       id="path851"
       d="m 69.413873,223.46619 -0.773397,-0.77339 v -19.48758 -19.48759 l 0.773397,-0.77339 c 0.685117,-0.68512 0.956928,-0.7734 2.38125,-0.7734 h 1.607853 v -6.86003 c 0,-7.89493 0.223125,-10.00451 1.436573,-13.58234 2.424383,-7.14825 8.302796,-13.06716 15.380645,-15.48663 2.127194,-0.72715 5.921507,-1.37545 8.053615,-1.37605 2.118301,-5.9e-4 5.629831,0.60005 7.930011,1.35643 7.20443,2.36906 13.0384,8.26979 15.66107,15.84028 0.97938,2.82704 1.27757,5.86576 1.27869,13.03073 l 0.001,6.81303 1.12448,0.0149 c 1.81769,0.0241 2.91668,0.52666 3.43917,1.57257 0.42735,0.85545 0.46264,2.355 0.46302,19.67147 5.3e-4,20.42395 0.0244,20.08766 -1.47999,20.77312 -0.48107,0.21919 -8.26655,0.30125 -28.582606,0.30125 H 70.187271 Z m 32.944217,-41.4711 10.78559,-0.17576 -0.1192,-7.43102 c -0.0978,-6.09939 -0.20196,-7.69179 -0.58101,-8.88622 -1.76067,-5.54816 -6.40519,-9.5594 -12.0154,-10.3771 -7.255235,-1.05746 -14.07473,3.27794 -16.322976,10.3771 -0.37555,1.18585 -0.483313,2.78998 -0.582201,8.66642 -0.06674,3.96618 -0.05305,7.38922 0.03044,7.60678 0.179455,0.46765 2.168108,0.4909 18.804757,0.2198 z"
       style="fill:#fcea56;stroke-width:0.26458332" />
    <path
       inkscape:connector-curvature="0"
       id="path849"
       d="m 98.215344,220.73386 -0.07383,-3.50573 -2.971868,-0.0748 c -2.702299,-0.068 -2.998693,-0.12489 -3.267623,-0.62739 -0.427943,-0.79961 -0.11856,-2.73493 1.229487,-7.69096 0.644311,-2.36878 1.17194,-4.55402 1.172509,-4.85607 5.29e-4,-0.30205 -0.308205,-0.83784 -0.686171,-1.19063 -1.140179,-1.06423 -1.73211,-2.51542 -1.757423,-4.30855 -0.04277,-3.03018 2.031323,-5.7095 5.109057,-6.59988 l 1.172032,-0.33906 0.07296,-4.34286 c 0.05155,-3.0683 0.168026,-4.40325 0.396875,-4.54864 0.178152,-0.11319 3.540911,-0.20762 7.472801,-0.20985 l 7.1489,-0.004 -0.0674,-1.91823 c -0.0371,-1.05502 -0.11415,-4.5376 -0.17125,-7.73906 -0.0809,-4.53612 -0.20411,-6.14201 -0.55826,-7.27604 -2.21021,-7.07745 -9.0612,-11.43457 -16.316563,-10.3771 -5.610079,0.81768 -10.252959,4.82735 -12.015858,10.3771 -0.381189,1.20001 -0.483123,2.79019 -0.58126,9.06771 l -0.119006,7.61252 -4.934081,-0.0719 -4.934081,-0.0719 -0.0765,-6.61459 c -0.04308,-3.72497 0.04941,-7.59705 0.211707,-8.86354 1.173828,-9.15969 7.836995,-17.34026 16.54972,-20.31857 2.127194,-0.72716 5.921507,-1.37546 8.053615,-1.37606 2.118307,-5.9e-4 5.629837,0.60006 7.930017,1.35643 8.5787,2.82098 15.06709,10.53429 16.55194,19.67674 0.51185,3.15157 0.55752,15.86692 0.0581,16.19012 -0.19324,0.12507 0.48333,0.27729 1.62746,0.36617 1.71169,0.13297 2.03707,0.24381 2.58473,0.8805 l 0.62653,0.72839 -0.0712,19.31743 -0.0712,19.31742 -0.62463,0.50572 c -0.34354,0.27814 -0.52214,0.50754 -0.39687,0.50976 0.12526,0.002 0.0492,0.11947 -0.16913,0.26054 -0.24311,0.15711 -5.75012,0.25805 -14.21367,0.26053 l -13.816798,0.004 z"
       style="fill:#f8d432;stroke-width:0.26458332" />
    <path
       inkscape:connector-curvature="0"
       id="path847"
       d="m 92.012627,216.4165 c -0.293592,-0.76509 0.12369,-3.12539 1.344676,-7.60601 0.666787,-2.44689 1.212339,-4.65855 1.212339,-4.91482 0,-0.25626 -0.309242,-0.75457 -0.687207,-1.10736 -2.505972,-2.33905 -2.415154,-6.34656 0.202959,-8.95594 3.082817,-3.07254 7.630986,-2.16287 9.822206,1.96451 1.12395,2.11707 0.55605,5.31276 -1.24242,6.99143 -0.37796,0.35279 -0.6872,0.86616 -0.6872,1.14082 0,0.27466 0.52787,2.4525 1.17305,4.83963 1.32073,4.88663 1.6065,6.43536 1.36498,7.39765 l -0.16686,0.66485 h -6.088687 c -5.284766,0 -6.109692,-0.0548 -6.247836,-0.41476 z M 73.579365,181.99445 c -0.2876,-0.2876 -0.200594,-13.36491 0.103877,-15.61332 1.226669,-9.0585 7.901543,-17.1874 16.536952,-20.13929 2.127194,-0.72715 5.921507,-1.37545 8.053615,-1.37605 3.305171,-9.3e-4 8.032931,1.11241 10.980211,2.58574 5.97188,2.98529 10.78889,8.70351 12.78005,15.17107 0.89074,2.89321 1.14898,6.04116 1.06101,12.93365 l -0.0827,6.4823 h -4.89479 -4.89479 l -0.16036,-7.54063 c -0.12977,-6.10279 -0.24809,-7.8181 -0.62055,-8.99583 -2.24446,-7.09699 -9.06709,-11.43456 -16.322337,-10.3771 -5.610079,0.81768 -10.252959,4.82735 -12.015858,10.3771 -0.381151,1.19989 -0.483121,2.78981 -0.581194,9.06197 l -0.118941,7.60678 h -4.823903 c -2.653147,0 -4.903279,-0.0794 -5.000292,-0.17639 z"
       style="fill:#95a6ad;stroke-width:0.26458332" />
    <path
       inkscape:connector-curvature="0"
       id="path845"
       d="m 92.012627,216.4165 c -0.293592,-0.76509 0.12369,-3.12539 1.344676,-7.60601 0.666787,-2.44689 1.212339,-4.65855 1.212339,-4.91482 0,-0.25626 -0.309242,-0.75457 -0.687207,-1.10736 -2.505972,-2.33905 -2.415154,-6.34656 0.202959,-8.95594 3.082817,-3.07254 7.630986,-2.16287 9.822206,1.96451 1.12395,2.11707 0.55605,5.31276 -1.24242,6.99143 -0.37796,0.35279 -0.6872,0.86616 -0.6872,1.14082 0,0.27466 0.52787,2.4525 1.17305,4.83963 1.32073,4.88663 1.6065,6.43536 1.36498,7.39765 l -0.16686,0.66485 h -6.088687 c -5.284766,0 -6.109692,-0.0548 -6.247836,-0.41476 z M 113.5535,182.02236 c -0.10914,-0.11236 -0.19844,-3.37413 -0.19844,-7.24837 0,-7.76811 -0.14659,-8.8356 -1.63659,-11.91774 -0.5661,-1.171 -1.47188,-2.36263 -2.83855,-3.73432 -3.10626,-3.11766 -6.31128,-4.46776 -10.606111,-4.46776 -4.010504,0 -7.264387,1.27469 -10.153973,3.97775 -1.996424,1.86756 -3.152884,3.56898 -4.098016,6.02913 -0.65738,1.71114 -0.683342,2.00985 -0.820211,9.43674 -0.135173,7.33495 -0.163855,7.67399 -0.657205,7.76864 -0.283724,0.0544 -2.349185,0.013 -4.589913,-0.092 l -4.074051,-0.19093 0.117149,-7.84229 c 0.104356,-6.98584 0.17971,-8.07345 0.689996,-9.95896 2.1499,-7.94386 8.079841,-14.36602 15.736658,-17.04288 1.285291,-0.44934 2.979037,-0.89246 3.763881,-0.9847 0.784844,-0.0922 1.3717,-0.25718 1.304123,-0.36652 -0.198419,-0.32105 2.655816,-0.57739 4.233775,-0.38024 0.798718,0.0998 1.387008,0.28696 1.307298,0.41592 -0.0797,0.12895 0.20599,0.23447 0.63486,0.23447 2.10365,0 7.50889,2.11408 10.36396,4.05353 1.76479,1.19882 4.66183,4.05791 5.98819,5.90974 1.49169,2.08265 3.1335,5.58668 3.8505,8.21789 0.49551,1.81837 0.57507,2.9685 0.67969,9.82468 0.0652,4.27087 0.0171,7.86192 -0.10672,7.9801 -0.29929,0.2856 -8.63578,0.64012 -8.8903,0.37808 z"
       style="fill:#758c98;stroke-width:0.26458332" />
    <path
       inkscape:connector-curvature="0"
       id="path843"
       d="m 92.364782,216.65487 c -0.492905,-0.49291 -0.09135,-3.41395 1.046626,-7.61342 0.672658,-2.48233 1.223322,-4.79071 1.223698,-5.12975 2.64e-4,-0.34936 -0.408036,-1.03716 -0.942679,-1.5875 -1.174906,-1.20941 -1.504035,-2.06449 -1.504035,-3.9075 0,-4.02348 4.229251,-7.37186 7.816028,-6.18812 1.25918,0.41556 3.16625,2.15326 3.90306,3.55641 1.12223,2.13714 0.55694,5.32393 -1.2423,7.00332 -0.37796,0.35279 -0.6872,0.86616 -0.6872,1.14082 0,0.27466 0.52787,2.4525 1.17305,4.83963 1.32073,4.88663 1.6065,6.43536 1.36498,7.39765 l -0.16686,0.66485 h -5.903994 c -3.247192,0 -5.983362,-0.0794 -6.080374,-0.17639 z M 78.436487,181.51713 c -0.514482,-0.61991 -0.205642,-14.19886 0.375711,-16.5191 1.752763,-6.99546 7.26709,-12.61432 14.357404,-14.62955 2.891899,-0.82195 7.316518,-0.82195 10.208418,0 7.09068,2.01534 12.60994,7.63971 14.35615,14.62955 0.44992,1.80096 0.88889,14.85399 0.54554,16.22199 -0.16823,0.67028 -0.22376,0.68624 -2.38904,0.68624 h -2.2168 l -0.11971,-7.47449 c -0.13043,-8.14272 -0.22257,-8.7383 -1.85234,-11.97239 -1.10843,-2.19955 -4.30113,-5.32162 -6.56284,-6.41765 -6.118228,-2.96493 -12.699741,-1.89736 -17.478656,2.83517 -2.085388,2.06515 -3.203306,3.881 -4.078761,6.62519 -0.376577,1.18041 -0.494612,2.85417 -0.625061,8.86354 l -0.160818,7.40833 -2.0095,0.0765 c -1.56016,0.0594 -2.085571,-0.0151 -2.349697,-0.33337 z"
       style="fill:#607984;stroke-width:0.26458332" />
    <path
       inkscape:connector-curvature="0"
       id="path841"
       d="m 95.164955,216.63765 -2.976563,-0.0883 2.25e-4,-1.2481 c 1.25e-4,-0.68646 0.595437,-3.47579 1.322917,-6.1985 0.72748,-2.72272 1.322692,-5.0857 1.322692,-5.25107 0,-0.16537 -0.455293,-0.81791 -1.011762,-1.45009 -2.168067,-2.46306 -2.155894,-5.4685 0.03222,-7.95433 1.368438,-1.55463 2.788127,-2.26293 4.567799,-2.27892 3.132517,-0.0281 5.946347,2.97598 5.930927,6.33203 -0.007,1.42725 -0.68745,3.12345 -1.56882,3.90814 -1.1513,1.02501 -1.14504,1.17816 0.26347,6.45242 0.99484,3.72522 1.31946,5.38193 1.25956,6.42833 l -0.0807,1.40971 -3.04271,0.0135 c -1.673485,0.007 -4.382157,-0.0263 -6.019266,-0.0748 z m -16.374459,-35.3924 c -0.08367,-0.21803 -0.09398,-3.58155 -0.02291,-7.47448 0.145467,-7.96886 0.332474,-9.12922 2.03619,-12.63431 2.456806,-5.05444 7.174084,-8.9062 12.707538,-10.37598 2.33227,-0.61949 7.192726,-0.61949 9.524996,0 5.53319,1.46971 10.24972,5.32072 12.70799,10.37598 1.75545,3.60996 1.93835,4.833 1.95858,13.09688 l 0.0178,7.27604 -1.88779,0.0771 -1.88778,0.0771 -0.12919,-7.22088 c -0.14028,-7.84158 -0.29948,-8.91066 -1.7568,-11.79759 -3.73301,-7.39505 -12.568143,-10.42403 -20.399894,-6.99377 -2.836207,1.24224 -5.719617,4.08015 -7.248697,7.13432 -1.373025,2.74247 -1.540082,3.90145 -1.678688,11.64611 l -0.129036,7.2099 h -1.830094 c -1.381745,0 -1.867361,-0.0971 -1.982215,-0.39642 z"
       style="fill:#536b75;stroke-width:0.26458332" />
    <path
       inkscape:connector-curvature="0"
       id="path839"
       d="m 92.629365,216.39028 c -0.45254,-0.45253 -0.06567,-2.95977 1.161204,-7.52565 1.442807,-5.36946 1.442794,-5.36852 0.09688,-6.71443 -0.912625,-0.91263 -1.43447,-2.26137 -1.43447,-3.70748 0,-3.15029 2.81832,-6.01145 5.94995,-6.04039 1.509638,-0.0139 2.598581,0.47442 3.851481,1.72731 2.36309,2.36309 2.45333,6.00673 0.20625,8.32854 -0.44738,0.46226 -0.81341,1.12306 -0.81341,1.46843 0,0.34538 0.55066,2.66995 1.2237,5.16571 0.76308,2.82967 1.2237,5.09044 1.2237,6.00605 v 1.4683 h -5.644448 c -3.104446,0 -5.723821,-0.0794 -5.820834,-0.17639 z"
       style="fill:#34444c;stroke-width:0.26458332" />
    <path
       style="fill:#ffffff;stroke:none;stroke-width:0.26458332px;stroke-linecap:butt;stroke-linejoin:miter;stroke-opacity:1;fill-opacity:0.43921569"
       d="m 80.600787,184.14914 -10.156242,-0.33409 -0.133632,10.08943 c 0,0 0.338562,-4.53124 2.677171,-7.0703 1.870886,-2.53906 7.612703,-2.68504 7.612703,-2.68504 z"
       id="path865"
       inkscape:connector-curvature="0"
       sodipodi:nodetypes="ccccc" />
  </g>
</svg>
