<?xml version="1.0" encoding="UTF-8" standalone="no"?>
<!-- Created with Inkscape (http://www.inkscape.org/) -->

<svg
   xmlns:dc="http://purl.org/dc/elements/1.1/"
   xmlns:cc="http://creativecommons.org/ns#"
   xmlns:rdf="http://www.w3.org/1999/02/22-rdf-syntax-ns#"
   xmlns:svg="http://www.w3.org/2000/svg"
   xmlns="http://www.w3.org/2000/svg"
   xmlns:sodipodi="http://sodipodi.sourceforge.net/DTD/sodipodi-0.dtd"
   xmlns:inkscape="http://www.inkscape.org/namespaces/inkscape"
   width="300"
   height="300"
   viewBox="0 0 79.374998 79.374998"
   version="1.1"
   id="svg8"
   inkscape:version="0.92.4 (5da689c313, 2019-01-14)"
   sodipodi:docname="icon.svg"
   inkscape:export-filename="C:\shareddocs\websites\samepassword.com\html\img\icons\icon.png"
   inkscape:export-xdpi="256"
   inkscape:export-ydpi="256">
  <defs
     id="defs2" />
  <sodipodi:namedview
     id="base"
     pagecolor="#ffffff"
     bordercolor="#666666"
     borderopacity="1.0"
     inkscape:pageopacity="0.0"
     inkscape:pageshadow="2"
     inkscape:zoom="3.959798"
     inkscape:cx="323.93352"
     inkscape:cy="149.232"
     inkscape:document-units="mm"
     inkscape:current-layer="layer1"
     showgrid="false"
     fit-margin-top="0"
     fit-margin-left="0"
     fit-margin-right="0"
     fit-margin-bottom="0"
     inkscape:window-width="3840"
     inkscape:window-height="2035"
     inkscape:window-x="3827"
     inkscape:window-y="809"
     inkscape:window-maximized="1"
     units="px"
     inkscape:snap-global="false" />
  <metadata
     id="metadata5">
    <rdf:RDF>
      <cc:Work
         rdf:about="">
        <dc:format>image/svg+xml</dc:format>
        <dc:type
           rdf:resource="http://purl.org/dc/dcmitype/StillImage" />
        <dc:title></dc:title>
      </cc:Work>
    </rdf:RDF>
  </metadata>
  <g
     inkscape:label="Layer 1"
     inkscape:groupmode="layer"
     id="layer1"
     transform="translate(-68.640476,-144.86457)">
    <path
       style="fill:#000000;fill-opacity:1;stroke-width:0.26422003"
       d="m 133.40056,181.38879 -18.82812,0.0661 -1.92974,0.0313 c -12.680343,0.20663 -16.830287,0.24132 -18.168561,0.0389 l -10.746815,0.0379 v 0.0989 h -1.605766 c -1.422366,0 -1.693687,0.0879 -2.377863,0.7721 l -0.772604,0.77261 v 19.46043 19.46095 l 0.772604,0.7726 0.772099,0.7721 h 27.882886 c 20.28815,0 28.06304,-0.0819 28.54344,-0.30077 1.50237,-0.68452 1.47863,-0.34884 1.4781,-20.74475 -2.6e-4,-17.29269 -0.0355,-18.78985 -0.46225,-19.64411 -0.52178,-1.04448 -1.61939,-1.54643 -3.43459,-1.57044 l -1.12282,-0.0151 z"
       id="path851-7"
       inkscape:connector-curvature="0" />
    <path
       inkscape:connector-curvature="0"
       id="path851"
       d="m 80.383953,222.55753 -0.755252,-0.75524 v -19.03036 -19.03038 l 0.755252,-0.75525 c 0.669043,-0.66904 0.934476,-0.75525 2.325382,-0.75525 h 1.570129 v -6.69908 c 0,-7.70971 0.21789,-9.76979 1.402869,-13.26367 2.367503,-6.98055 8.107998,-12.76059 15.019777,-15.12329 2.07729,-0.71009 5.78259,-1.34318 7.86468,-1.34377 2.0686,-5.7e-4 5.49774,0.58598 7.74396,1.32461 7.0354,2.31347 12.73249,8.07577 15.29363,15.46863 0.9564,2.76071 1.2476,5.72814 1.24869,12.72502 l 9.7e-4,6.65317 1.0981,0.0145 c 1.77504,0.0236 2.84826,0.5143 3.35848,1.53568 0.41733,0.83538 0.45179,2.29975 0.45216,19.20994 5.1e-4,19.94476 0.0238,19.61637 -1.44527,20.28575 -0.46978,0.21404 -8.0726,0.29417 -27.91201,0.29417 H 81.139206 Z m 32.171287,-40.49811 10.53255,-0.17163 -0.11641,-7.25668 c -0.0955,-5.95628 -0.19722,-7.51133 -0.56738,-8.67773 -1.71936,-5.418 -6.25491,-9.33513 -11.7335,-10.13363 -7.08501,-1.03266 -13.74451,3.20102 -15.940009,10.13363 -0.366738,1.15803 -0.471973,2.72451 -0.568541,8.46308 -0.06517,3.87313 -0.0518,7.21586 0.02972,7.42832 0.175244,0.45668 2.11724,0.47938 18.36357,0.21464 z"
       style="fill:#fbe52f;fill-opacity:1;stroke-width:0.2583757" />
    <path
       inkscape:connector-curvature="0"
       id="path849"
       d="m 108.50969,219.88931 -0.0721,-3.42348 -2.90215,-0.073 c -2.63889,-0.0664 -2.92833,-0.12196 -3.19095,-0.61267 -0.4179,-0.78085 -0.11578,-2.67076 1.20064,-7.51052 0.62919,-2.31321 1.14444,-4.44718 1.14501,-4.74213 5e-4,-0.29497 -0.30099,-0.81819 -0.67009,-1.1627 -1.11342,-1.03926 -1.69147,-2.45641 -1.71618,-4.20747 -0.0418,-2.95908 1.98366,-5.57555 4.98919,-6.44504 l 1.14453,-0.33109 0.0712,-4.24097 c 0.0503,-2.99632 0.16409,-4.29995 0.38758,-4.44193 0.17396,-0.11053 3.45783,-0.20275 7.29747,-0.20492 l 6.98117,-0.004 -0.0658,-1.87322 c -0.0362,-1.03027 -0.11147,-4.43114 -0.16723,-7.5575 -0.079,-4.42969 -0.19932,-5.9979 -0.54516,-7.10533 -2.15836,-6.91139 -8.84861,-11.16628 -15.93375,-10.13362 -5.47846,0.79848 -10.012406,4.71408 -11.733945,10.13362 -0.372245,1.17187 -0.471788,2.72473 -0.567622,8.85497 l -0.116214,7.43392 -4.818319,-0.0702 -4.818318,-0.0702 -0.07471,-6.45941 c -0.04207,-3.63757 0.04825,-7.4188 0.20674,-8.65558 1.146288,-8.94479 7.653125,-16.93342 16.161438,-19.84186 2.07728,-0.7101 5.78258,-1.34319 7.86466,-1.34378 2.06861,-5.7e-4 5.49775,0.58599 7.74397,1.32461 8.37743,2.7548 14.71359,10.28714 16.1636,19.21508 0.49984,3.07764 0.54444,15.49466 0.0567,15.81028 -0.18871,0.12213 0.47199,0.27078 1.58928,0.35758 1.67153,0.12985 1.98927,0.23808 2.52409,0.85984 l 0.61182,0.7113 -0.0696,18.86421 -0.0696,18.8642 -0.60997,0.49386 c -0.33549,0.2716 -0.50989,0.49562 -0.38756,0.49779 0.12232,0.002 0.0481,0.11667 -0.16516,0.25443 -0.23741,0.15343 -5.61521,0.252 -13.8802,0.25442 l -13.49263,0.004 z"
       style="fill:#f8d432;stroke-width:0.2583757" />
    <path
       inkscape:connector-curvature="0"
       id="path847"
       d="m 102.4525,215.67324 c -0.2867,-0.74714 0.12078,-3.05206 1.31313,-7.42756 0.65115,-2.38947 1.18389,-4.54925 1.18389,-4.7995 0,-0.25025 -0.30198,-0.73687 -0.67108,-1.08138 -2.44718,-2.28418 -2.35849,-6.19766 0.19819,-8.74582 3.01049,-3.00046 7.45196,-2.11213 9.59177,1.91841 1.09758,2.0674 0.54301,5.18812 -1.21327,6.82741 -0.36909,0.34451 -0.67108,0.84584 -0.67108,1.11405 0,0.26822 0.51548,2.39496 1.14553,4.72608 1.28974,4.77198 1.56881,6.28438 1.33295,7.22409 l -0.16294,0.64926 h -5.94584 c -5.16078,0 -5.96635,-0.0535 -6.10125,-0.40504 z M 84.451715,182.05879 c -0.280853,-0.28085 -0.195887,-13.05134 0.101437,-15.24699 1.19789,-8.84598 7.71616,-16.78416 16.148958,-19.66679 2.07729,-0.71009 5.78259,-1.34318 7.86468,-1.34377 3.22762,-9.1e-4 7.84446,1.08631 10.72259,2.52508 5.83177,2.91525 10.53576,8.4993 12.48021,14.81513 0.86984,2.82532 1.12202,5.89941 1.03612,12.6302 l -0.0807,6.33022 h -4.77995 -4.77995 l -0.1566,-7.36372 c -0.12672,-5.95961 -0.24227,-7.63467 -0.60599,-8.78477 -2.1918,-6.93049 -8.85436,-11.16629 -15.93939,-10.13363 -5.47846,0.79849 -10.012407,4.71408 -11.733945,10.13363 -0.372208,1.17173 -0.471786,2.72436 -0.567558,8.84935 l -0.116151,7.42832 H 89.33473 c -2.590899,0 -4.788239,-0.0775 -4.882976,-0.17226 z"
       style="fill:#2b3438;fill-opacity:1;stroke-width:0.2583757" />
    <path
       inkscape:connector-curvature="0"
       id="path845"
       d="m 102.4525,215.67324 c -0.2867,-0.74714 0.12078,-3.05206 1.31313,-7.42756 0.65115,-2.38947 1.18389,-4.54925 1.18389,-4.7995 0,-0.25025 -0.30198,-0.73687 -0.67108,-1.08138 -2.44718,-2.28418 -2.35849,-6.19766 0.19819,-8.74582 3.01049,-3.00046 7.45196,-2.11213 9.59177,1.91841 1.09758,2.0674 0.54301,5.18812 -1.21327,6.82741 -0.36909,0.34451 -0.67108,0.84584 -0.67108,1.11405 0,0.26822 0.51548,2.39496 1.14553,4.72608 1.28974,4.77198 1.56881,6.28438 1.33295,7.22409 l -0.16294,0.64926 h -5.94584 c -5.16078,0 -5.96635,-0.0535 -6.10125,-0.40504 z m 21.03549,-33.58719 c -0.10658,-0.10972 -0.19378,-3.29496 -0.19378,-7.0783 0,-7.58587 -0.14316,-8.62831 -1.5982,-11.63813 -0.55281,-1.14353 -1.43735,-2.30721 -2.77195,-3.64672 -3.03339,-3.04451 -6.16321,-4.36293 -10.35727,-4.36293 -3.91642,0 -7.09396,1.24478 -9.915749,3.88442 -1.949585,1.82375 -3.078912,3.48525 -4.00187,5.88767 -0.641957,1.67101 -0.667309,1.9627 -0.800967,9.21535 -0.132001,7.16285 -0.160011,7.49394 -0.641785,7.58637 -0.277068,0.0531 -2.294069,0.0127 -4.482226,-0.0898 l -3.978467,-0.18645 0.114401,-7.6583 c 0.101907,-6.82194 0.175493,-7.88402 0.673807,-9.7253 2.09946,-7.75748 7.890274,-14.02897 15.367446,-16.64302 1.25514,-0.4388 2.90915,-0.87153 3.67557,-0.96161 0.76643,-0.09 1.33952,-0.25114 1.27353,-0.35791 -0.19376,-0.31352 2.5935,-0.56385 4.13445,-0.37132 0.77997,0.0974 1.35446,0.28023 1.27663,0.40616 -0.0778,0.12592 0.20115,0.22897 0.61996,0.22897 2.05429,0 7.33272,2.06448 10.1208,3.95843 1.72339,1.17069 4.55246,3.9627 5.84769,5.77108 1.4567,2.03379 3.05999,5.4556 3.76017,8.02508 0.48388,1.77572 0.56158,2.89886 0.66374,9.59418 0.0636,4.17067 0.0167,7.67746 -0.10419,7.79288 -0.29227,0.2789 -8.43317,0.62509 -8.68172,0.3692 z"
       style="fill:#758c98;stroke-width:0.2583757" />
    <path
       inkscape:connector-curvature="0"
       id="path843"
       d="m 102.79639,215.90602 c -0.48134,-0.48134 -0.0893,-3.33385 1.02207,-7.43479 0.65688,-2.4241 1.19463,-4.67831 1.19499,-5.0094 2.6e-4,-0.34117 -0.39846,-1.01283 -0.92056,-1.55026 -1.14734,-1.18103 -1.46874,-2.01605 -1.46874,-3.81582 0,-3.92908 4.13002,-7.1989 7.63265,-6.04293 1.22963,0.4058 3.09196,2.10273 3.81148,3.47297 1.0959,2.08699 0.54388,5.19901 -1.21315,6.83901 -0.36909,0.34451 -0.67108,0.84584 -0.67108,1.11405 0,0.26822 0.51548,2.39496 1.14553,4.72608 1.28974,4.77198 1.56881,6.28438 1.33295,7.22409 l -0.16294,0.64926 h -5.76549 c -3.171,0 -5.84297,-0.0776 -5.93771,-0.17226 z M 89.194881,181.59267 c -0.502412,-0.60536 -0.200818,-13.86572 0.366896,-16.13153 1.71164,-6.83133 7.09659,-12.31836 14.020553,-14.28631 2.82405,-0.80267 7.14486,-0.80267 9.96891,0 6.92432,1.96806 12.31409,7.46047 14.01933,14.28631 0.43937,1.75871 0.86804,14.50549 0.53275,15.84139 -0.16429,0.65456 -0.21851,0.67014 -2.333,0.67014 h -2.16479 l -0.11689,-7.29912 c -0.12738,-7.95168 -0.21736,-8.53328 -1.80889,-11.6915 -1.08243,-2.14794 -4.20022,-5.19676 -6.40886,-6.26707 -5.97469,-2.89537 -12.40179,-1.85286 -17.068581,2.76865 -2.036461,2.0167 -3.12815,3.78994 -3.983066,6.46975 -0.367741,1.15271 -0.483007,2.78721 -0.610396,8.65558 l -0.157044,7.23452 -1.962354,0.0747 c -1.523555,0.058 -2.036639,-0.0147 -2.294568,-0.32555 z"
       style="fill:#607984;stroke-width:0.2583757" />
    <path
       inkscape:connector-curvature="0"
       id="path841"
       d="m 105.53086,215.88921 -2.90671,-0.0862 2e-4,-1.21882 c 1.3e-4,-0.67035 0.58147,-3.39425 1.29189,-6.05308 0.71041,-2.65883 1.29166,-4.96637 1.29166,-5.12786 0,-0.16149 -0.44461,-0.79873 -0.98802,-1.41608 -2.11721,-2.40527 -2.10531,-5.34019 0.0315,-7.7677 1.33632,-1.51816 2.7227,-2.20983 4.46062,-2.22546 3.05903,-0.0274 5.80684,2.90617 5.79178,6.18348 -0.007,1.39376 -0.67132,3.05016 -1.53201,3.81644 -1.12429,1.00097 -1.11818,1.15052 0.25729,6.30104 0.97149,3.63782 1.2885,5.25566 1.23,6.2775 l -0.0788,1.37664 -2.97131,0.0131 c -1.63423,0.007 -4.27935,-0.0256 -5.87805,-0.073 z M 89.540584,181.32717 c -0.0817,-0.21291 -0.09177,-3.49752 -0.02237,-7.29911 0.142054,-7.7819 0.324673,-8.91503 1.988418,-12.33788 2.399164,-4.93586 7.005767,-8.69725 12.409388,-10.13254 2.27756,-0.60496 7.02397,-0.60496 9.30153,0 5.40337,1.43522 10.00924,5.19587 12.40984,10.13254 1.71427,3.52526 1.89287,4.7196 1.91263,12.78959 l 0.0174,7.10533 -1.8435,0.0753 -1.84349,0.0753 -0.12616,-7.05147 c -0.13699,-7.6576 -0.29245,-8.70159 -1.71558,-11.5208 -3.64543,-7.22154 -12.27327,-10.17946 -19.92129,-6.82967 -2.76965,1.21309 -5.58541,3.98442 -7.078615,6.96693 -1.340812,2.67813 -1.503949,3.80991 -1.639303,11.37287 l -0.126009,7.04074 h -1.787156 c -1.349327,0 -1.823549,-0.0948 -1.935709,-0.38712 z"
       style="fill:#536b75;stroke-width:0.2583757" />
    <path
       inkscape:connector-curvature="0"
       id="path839"
       d="m 103.05476,215.64764 c -0.44192,-0.44191 -0.0641,-2.89033 1.13398,-7.34908 1.40894,-5.24349 1.40893,-5.24257 0.0946,-6.55691 -0.89122,-0.89121 -1.40081,-2.20831 -1.40081,-3.62049 0,-3.07637 2.75219,-5.87041 5.81034,-5.89867 1.47422,-0.0136 2.53762,0.46329 3.76112,1.68678 2.30765,2.30765 2.39577,5.86581 0.20142,8.13314 -0.43689,0.45141 -0.79433,1.09671 -0.79433,1.43398 0,0.33727 0.53774,2.60731 1.19499,5.04452 0.74518,2.76327 1.19498,4.971 1.19498,5.86513 v 1.43385 h -5.51202 c -3.03161,0 -5.58953,-0.0776 -5.68427,-0.17225 z"
       style="fill:#34444c;stroke-width:0.2583757" />
    <path
       style="fill:#ffffff;fill-opacity:0.43921569;stroke:none;stroke-width:0.2583757px;stroke-linecap:butt;stroke-linejoin:miter;stroke-opacity:1"
       d="m 91.308401,184.16293 -9.917958,-0.32624 -0.130496,9.8527 c 0,0 0.330619,-4.42492 2.614359,-6.90441 1.826992,-2.4795 7.434095,-2.62205 7.434095,-2.62205 z"
       id="path865"
       inkscape:connector-curvature="0"
       sodipodi:nodetypes="ccccc" />
    <path
       style="fill:#ffffff;stroke:none;stroke-width:0.26458332px;stroke-linecap:butt;stroke-linejoin:miter;stroke-opacity:1;fill-opacity:0"
       d="m 105.85932,146.31742 c 0,0 0.24113,-0.3008 0.77266,-0.4071 0.98038,-0.14174 1.96766,-0.13629 1.96766,-0.13629 0,0 0.84429,0.0531 1.6593,0.14759 0.79138,0.1063 1.0456,0.47845 1.0456,0.47845 l -1.77177,4.18136 -2.35054,0.0236 z"
       id="path890"
       inkscape:connector-curvature="0"
       sodipodi:nodetypes="cccccccc" />
  </g>
</svg>
